<svg width="295" height="295" xmlns="http://www.w3.org/2000/svg">
 <title/>
 <desc/>

 <g>
  <title>background</title>
  <rect fill="none" id="canvas_background" height="402" width="582" y="-1" x="-1"/>
 </g>
 <g>
  <title>Layer 1</title>
  <path id="Shape" fill="#ad44ea" d="m251.630005,43.179001c-11.294998,-11.295 -23.931,-20.472 -37.556,-27.276001c-2.966003,-1.482 -6.568008,-0.276999 -8.048004,2.687c-1.479996,2.965 -0.277008,6.568001 2.686996,8.048c12.466995,6.225998 24.052002,14.646 34.432007,25.026001c52.80101,52.800995 52.80101,138.714005 0,191.514999c-52.80101,52.80101 -138.714005,52.80101 -191.515003,0c-52.801001,-52.800995 -52.801001,-138.714005 0,-191.514999c25.577,-25.578001 59.584995,-39.664001 95.756001,-39.664001c3.313004,0 6,-2.687 6,-6c0,-3.313 -2.686996,-6 -6,-6c-39.376999,0 -76.397003,15.334 -104.242001,43.179001c-57.479001,57.478996 -57.479001,151.005997 0,208.485001c28.740002,28.73999 66.491001,43.109985 104.242992,43.109985c37.752014,0 75.503006,-14.369995 104.243011,-43.109985c57.479004,-57.479004 57.479004,-151.006004 0,-208.485001z"/>
  <path id="Shape" fill="#15eb98" d="m147.386993,51.992001c-3.312988,0 -6,2.687 -6,6l0,178.858997c0,3.313995 2.687012,6 6,6c3.313004,0 6,-2.686005 6,-6l0,-178.858997c0,-3.313999 -2.686996,-6 -6,-6z"/>
  <path id="Shape" fill="#15eb98" d="m171.386993,153.421005l65.430008,0c3.313004,0 6,-2.687012 6,-6c0,-3.313004 -2.686996,-6 -6,-6l-65.430008,0c-3.312988,0 -6,2.686996 -6,6c0,3.312988 2.686005,6 6,6z"/>
  <path id="Shape" fill="#15eb98" d="m57.957001,141.840988c-3.313,0 -6,2.686996 -6,6c0,3.312988 2.687,6 6,6l63.43,0c3.312996,0 6,-2.687012 6,-6c0,-3.313004 -2.687004,-6 -6,-6l-63.43,0z"/>
 </g>
</svg>